<?xml version="1.0"?>
<svg width="2048" height="2048" xmlns="http://www.w3.org/2000/svg" xmlns:svg="http://www.w3.org/2000/svg" version="1.1">
 <g class="layer">
  <title>Layer 1</title>
  <path d="m63,555l1886,0l0,1092l-1885.08,0l-0.92,-1.61l0,-1090.39z" fill="#29282A" id="svg_1"/>
  <path d="m0,0l29,0l19,4l15,5l16,8l12,7l13,11l6,5l9,11l9,13l10,21l5,18l2,10l0,30l-4,21l-6,17l-10,19l-9,12l-9,10l-11,10l-10,7l-15,8l-20,8l-17,4l-14,1l-11,0l-18,-2l-20,-5l-19,-8l-16,-10l-11,-9l-11,-11l-9,-13l-8,-14l-7,-17l-5,-16l-2,-13l0,-23l3,-18l8,-24l9,-17l10,-13l9,-10l10,-9l14,-10l15,-8l18,-6l21,-4z" fill="#706457" id="svg_2" transform="translate(246,986)"/>
  <path d="m0,0l20,0l13,4l9,6l8,11l5,12l1,5l0,23l-3,13l-6,11l-9,9l-10,5l-9,2l-21,0l-13,-4l-8,-6l-7,-8l-6,-13l-2,-8l-1,-16l2,-12l5,-12l7,-11l8,-6l12,-4l5,-1z" fill="#FEFEFE" id="svg_3" transform="translate(1443,987)"/>
  <path d="m0,0l21,0l13,4l8,6l7,8l5,11l3,16l0,11l-3,16l-7,14l-7,7l-12,6l-9,2l-20,0l-13,-4l-6,-4l-5,-5l-4,-5l-6,-12l-3,-13l0,-17l3,-11l7,-14l7,-8l12,-6l9,-2z" fill="#FEFEFE" id="svg_4" transform="translate(1622,987)"/>
  <path d="m0,0l4,1l0,99l-2,2l-4,1l-9,0l-5,-5l-12,-22l-8,-13l-12,-16l-9,-10l-4,-5l-2,-1l0,71l-4,1l-12,0l-2,-1l-1,-4l0,-92l4,-4l10,-1l6,4l8,7l0,2l3,1l9,11l11,13l12,17l4,6l1,-53l7,-6l7,-3z" fill="#FEFEFE" id="svg_5" transform="translate(706,985)"/>
  <path d="m0,0l3,1l1,9l0,89l-3,3l-3,1l-9,0l-6,-7l-6,-11l-11,-17l-7,-11l-11,-14l-11,-12l-1,70l-7,2l-9,0l-2,-2l0,-97l3,-2l12,0l6,4l13,13l9,11l10,13l9,12l4,6l1,-52l5,-4l10,-5z" fill="#FEFEFE" id="svg_6" transform="translate(1386,985)"/>
  <path d="m0,0l6,0l1,42l42,0l0,-29l1,-11l8,-1l10,1l1,1l0,82l11,0l2,4l-2,8l-3,3l-9,2l-7,0l-7,-4l-4,-8l-1,-31l-42,0l-1,41l-6,2l-10,0l-2,-2l0,-93l9,-6l3,-1z" fill="#FEFEFE" id="svg_7" transform="translate(1210,986)"/>
  <path d="m0,0l21,0l14,4l5,5l2,4l0,7l-1,1l-8,-1l-16,-3l-14,0l-10,4l-7,6l-5,12l0,23l3,9l6,7l6,4l6,2l20,0l2,-1l1,-21l-22,0l-2,-2l1,-6l6,-7l2,-1l14,-1l18,1l2,2l0,40l-3,6l-10,5l-9,2l-24,0l-13,-4l-9,-6l-7,-7l-6,-12l-2,-9l0,-25l4,-13l5,-9l8,-8l10,-5l12,-3z" fill="#FEFEFE" id="svg_8" transform="translate(1729,987)"/>
  <path d="m0,0l3,1l0,94l-1,22l84,0l34,1l0,15l-1,1l-131,0l-3,-1l0,-129l1,-2l14,-2z" fill="#29282A" id="svg_9" transform="translate(216,1040)"/>
  <path d="m0,0l67,0l-1,8l-6,8l-5,1l-37,0l0,23l32,0l5,1l0,15l-10,1l-23,0l-4,-1l0,27l48,0l1,1l0,15l-67,0l-1,-5l0,-91l1,-3z" fill="#FEFEFE" id="svg_10" transform="translate(820,988)"/>
  <path d="m0,0l67,0l-1,5l-5,10l-2,2l-42,0l1,4l0,19l32,0l5,2l0,13l-1,1l-13,1l-23,0l0,26l46,0l3,2l0,12l-1,2l-66,0l-1,-3l0,-93l1,-3z" fill="#FEFEFE" id="svg_11" transform="translate(1031,988)"/>
  <path d="m0,0l18,0l13,3l8,5l1,2l0,10l-1,3l-10,-3l-9,-2l-18,0l-8,4l-6,7l-4,13l0,19l4,11l7,8l9,4l15,0l15,-4l6,0l0,10l-3,5l-8,4l-10,2l-20,0l-13,-4l-11,-8l-6,-9l-4,-10l-2,-11l0,-18l4,-16l7,-12l8,-7l9,-4l9,-2z" fill="#FEFEFE" id="svg_12" transform="translate(1141,987)"/>
  <path d="m0,0l17,0l14,3l6,4l3,5l0,9l-5,1l-9,-3l-18,-2l-9,2l-9,6l-5,10l-2,8l0,16l4,12l6,8l7,4l4,1l14,0l15,-4l6,-1l1,1l0,10l-3,5l-5,3l-13,3l-22,0l-10,-3l-9,-6l-7,-8l-6,-12l-2,-8l-1,-16l2,-15l5,-12l6,-9l7,-6l9,-4l9,-2z" fill="#FEFEFE" id="svg_13" transform="translate(763,987)"/>
  <path d="m0,0l8,0l12,3l6,5l5,11l2,10l0,9l-2,13l-4,8l-8,7l-9,3l-11,0l-8,-3l-5,-5l-6,-9l-3,-10l0,-15l4,-12l5,-8l5,-4l9,-3z" fill="#2A292A" id="svg_14" transform="translate(1447 1e3)"/>
  <path d="m0,0l8,0l11,3l7,6l5,10l1,5l0,22l-4,11l-6,7l-8,4l-4,1l-11,0l-8,-3l-7,-6l-5,-10l-2,-7l0,-16l4,-13l4,-6l7,-6l8,-2z" fill="#2A292A" id="svg_15" transform="translate(1627 1e3)"/>
  <path d="m0,0l86,0l0,16l-12,1l-20,0l0,51l-1,31l-3,1l-12,0l-4,-2l-1,-4l0,-78l-2,1l-21,0l-4,-2l-5,-8l-1,-7z" fill="#FEFEFE" id="svg_16" transform="translate(933,988)"/>
  <path d="m0,0l16,2l13,26l9,14l4,7l3,-1l17,-28l10,-19l7,-1l11,1l-1,5l-8,17l-16,27l-10,12l-2,8l-1,29l-4,2l-10,0l-3,-3l-1,-4l0,-24l-3,-8l-10,-14l-13,-21l-11,-23l0,-3l3,-1z" fill="#FEFEFE" id="svg_17" transform="translate(1784,987)"/>
  <path d="m0,0l2,1l0,72l73,0l0,16l-1,1l-87,0l-2,-1l0,-86l1,-2l14,-1z" fill="#29282A" id="svg_18" transform="translate(265,1037)"/>
  <path d="m0,0l3,0l0,679l-4,0l0,-678l1,-1z" fill="#FEFEFE" id="svg_19" transform="translate(2045,684)"/>
  <path d="m0,0l7,0l0,86l5,-1l41,0l2,1l1,9l-2,6l-65,0l-1,-14l0,-79l5,-5l7,-3z" fill="#FEFEFE" id="svg_20" transform="translate(1526,986)"/>
  <path d="m0,0l7,0l1,16l0,69l47,0l1,1l0,15l-66,0l-1,-2l0,-92l3,-3l8,-4z" fill="#FEFEFE" id="svg_21" transform="translate(506,986)"/>
  <path d="m0,0l2,0l1,3l0,91l-1,7l-5,2l-9,0l-4,-2l0,-93l8,-5l8,-3z" fill="#FEFEFE" id="svg_22" transform="translate(597,985)"/>
  <path d="m0,0l11,0l8,3l7,8l3,9l0,7l-5,10l-8,7l-4,1l-13,0l-6,-4l-7,-8l-2,-4l0,-12l4,-8l9,-8l3,-1z" fill="#2B2A2B" id="svg_23" transform="translate(584,1167)"/>
  <path d="m0,0l17,0l8,3l5,5l4,7l0,14l-4,8l-7,6l-6,2l-19,0l-2,-2l-1,-5l0,-36l5,-2z" fill="#2B292B" id="svg_24" transform="translate(1762,1167)"/>
  <path d="m0,0l17,0l9,3l7,8l2,5l0,13l-6,10l-5,4l-6,2l-19,0l-2,-1l-1,-3l0,-39l4,-2z" fill="#2D2B2C" id="svg_25" transform="translate(1634,1167)"/>
  <path d="m0,0l23,0l6,2l5,5l1,2l0,9l-3,5l-4,5l2,6l5,7l0,4l-5,-1l-8,-10l-2,-5l-16,-1l1,15l-5,1l-1,-1l0,-42l1,-1z" fill="#FEFEFE" id="svg_26" transform="translate(964,1167)"/>
  <path d="m0,0l5,3l6,16l3,11l0,3l2,0l2,-9l8,-22l2,-2l5,1l10,28l2,3l4,-15l4,-12l4,-5l4,1l-3,11l-11,33l-4,-1l-3,-5l-6,-14l-3,-11l-1,-1l-8,19l-5,12l-4,1l-4,-10l-8,-24l-2,-10l1,-1z" fill="#FEFEFE" id="svg_27" transform="translate(790,1167)"/>
  <path d="m0,0l3,1l14,30l5,14l-4,1l-3,-3l-4,-8l0,-2l-22,0l-3,10l-2,3l-5,-1l10,-28l7,-13l4,-4z" fill="#FEFEFE" id="svg_28" transform="translate(1366,1166)"/>
  <path d="m0,0l3,1l8,15l9,24l1,6l-5,-1l-6,-12l-20,0l-5,11l-5,1l2,-9l5,-13l10,-20l3,-3z" fill="#FEFEFE" id="svg_29" transform="translate(903,1166)"/>
  <path d="m0,0l6,1l10,13l4,5l3,-1l12,-16l1,-1l5,0l1,1l0,42l-4,0l-1,-7l-1,-26l-9,11l-5,7l-4,-2l-11,-15l-2,-1l0,33l-6,1l-1,-24l1,-20l1,-1z" fill="#FEFEFE" id="svg_30" transform="translate(1473,1167)"/>
  <path d="m0,0l17,0l9,3l7,8l2,5l0,13l-6,10l-5,4l-6,2l-19,0l-2,-1l-1,-3l0,-39l4,-2zm3,6l-1,3l0,27l1,4l13,0l8,-4l4,-7l1,-3l0,-8l-3,-6l-6,-5l-4,-1l-13,0z" fill="#FEFEFE" id="svg_31" transform="translate(1634,1167)"/>
  <path d="m0,0l4,2l10,19l8,19l1,5l-2,1l-4,-2l-5,-11l-21,0l-5,12l-4,1l-1,-3l8,-22l8,-16l3,-5z" fill="#FEFEFE" id="svg_32" transform="translate(1851,1166)"/>
  <path d="m0,0l2,0l9,16l8,20l2,6l0,4l-4,-1l-3,-5l-4,-7l-20,0l-5,12l-4,1l-1,-3l5,-15l10,-21l5,-7z" fill="#FEFEFE" id="svg_33" transform="translate(1175,1166)"/>
  <path d="m0,0l17,0l8,3l5,5l4,7l0,14l-4,8l-7,6l-6,2l-19,0l-2,-2l-1,-5l0,-36l5,-2zm2,6l-1,1l0,31l1,2l13,0l8,-4l4,-5l1,-3l0,-12l-4,-6l-4,-3l-4,-1l-14,0z" fill="#FEFEFE" id="svg_34" transform="translate(1762,1167)"/>
  <path d="m0,0l11,0l8,3l7,8l3,9l0,7l-5,10l-8,7l-4,1l-13,0l-6,-4l-7,-8l-2,-4l0,-12l4,-8l9,-8l3,-1zm1,6l-6,4l-4,6l-1,9l3,8l5,5l5,2l9,-1l8,-7l3,-6l0,-7l-4,-8l-6,-4l-3,-1l-9,0z" fill="#FEFEFE" id="svg_35" transform="translate(584,1167)"/>
  <path d="m0,0l31,0l1,5l-1,1l-26,0l1,13l23,1l0,5l-1,1l-23,0l1,13l23,0l3,3l-1,3l-31,0l-1,-11l0,-33l1,-1z" fill="#FEFEFE" id="svg_36" transform="translate(1559,1167)"/>
  <path d="m0,0l28,0l1,1l0,5l-26,1l0,12l22,1l1,5l-1,1l-23,0l1,14l25,0l1,4l-1,1l-30,0l-1,-1l-1,-13l0,-30l4,-1z" fill="#FEFEFE" id="svg_37" transform="translate(1043,1167)"/>
  <path d="m0,0l12,1l6,4l4,5l0,4l-5,-1l-7,-5l-9,-1l-5,3l-1,5l0,2l17,4l9,5l3,4l0,6l-4,6l-3,3l-6,2l-10,0l-8,-4l-4,-5l-1,-2l0,-6l5,3l4,5l8,3l7,-1l4,-4l0,-7l-17,-4l-8,-5l-2,-3l0,-8l5,-6l6,-3z" fill="#FEFEFE" id="svg_38" transform="translate(507,1166)"/>
  <path d="m0,0l29,0l2,1l-1,5l-25,0l0,14l21,0l1,1l0,5l-22,0l0,18l-6,0l0,-43l1,-1z" fill="#FEFEFE" id="svg_39" transform="translate(654,1167)"/>
  <path d="m0,0l33,0l2,1l-1,5l-13,0l-1,38l-5,-1l-1,-36l-13,-1l-2,-1l1,-5z" fill="#FEFEFE" id="svg_40" transform="translate(720,1167)"/>
  <path d="m0,0l6,0l0,39l22,0l0,5l-27,0l-1,-1l0,-43z" fill="#FEFEFE" id="svg_41" transform="translate(1282,1168)"/>
  <path d="m0,0l16,0l6,2l2,3l-1,8l-3,3l-20,0l-1,-1l0,-14l1,-1z" fill="#2D2B2C" id="svg_42" transform="translate(969,1173)"/>
  <path d="m0,0l6,0l0,43l-6,0l-1,-42l1,-1z" fill="#FEFEFE" id="svg_43" transform="translate(1709,1168)"/>
  <path d="m0,0l2,0l6,14l0,4l-16,0l1,-5l6,-12l1,-1z" fill="#302E2E" id="svg_44" transform="translate(1366,1176)"/>
  <path d="m0,0l2,0l7,16l0,1l-15,0l-1,-3l5,-12l2,-2z" fill="#302E2E" id="svg_45" transform="translate(903,1177)"/>
  <path d="m0,0l3,1l5,12l0,4l-15,1l1,-7l6,-11z" fill="#2E2C2D" id="svg_46" transform="translate(1852,1177)"/>
  <path d="m0,0l3,1l5,12l0,2l-2,1l-13,0l1,-6l5,-9l1,-1z" fill="#312F2F" id="svg_47" transform="translate(1175,1178)"/>
 </g>
</svg>