<?xml version="1.0" standalone="no"?>
<!DOCTYPE svg PUBLIC "-//W3C//DTD SVG 20010904//EN"
 "http://www.w3.org/TR/2001/REC-SVG-20010904/DTD/svg10.dtd">
<svg version="1.0" xmlns="http://www.w3.org/2000/svg"
 width="512.000000pt" height="512.000000pt" viewBox="0 0 512.000000 512.000000"
 preserveAspectRatio="xMidYMid meet">

<g transform="translate(0.000000,512.000000) scale(0.100000,-0.100000)"
fill="#000000" stroke="none">
<path d="M0 2560 l0 -850 2555 0 2555 0 0 850 0 850 -2555 0 -2555 0 0 -850z
m3479 -32 c1 -53 -2 -103 -5 -112 -10 -27 -42 -18 -60 17 -9 17 -35 57 -58 87
l-41 55 -5 -85 c-5 -79 -7 -85 -27 -88 -23 -3 -23 -2 -23 122 0 126 0 126 24
126 24 0 91 -64 115 -109 18 -33 31 -15 31 44 0 41 4 56 18 64 25 14 30 -7 31
-121z m-2191 15 l3 -102 57 -3 c43 -2 57 -7 57 -18 0 -12 -17 -16 -82 -18
l-83 -3 0 119 c0 65 3 122 7 126 4 4 14 5 23 4 12 -3 16 -23 18 -105z m212
-19 c0 -124 0 -125 -22 -122 -22 3 -23 8 -26 112 -3 124 -1 136 28 136 19 0
20 -6 20 -126z m147 83 c22 -24 49 -57 59 -73 l19 -28 5 69 c5 63 7 70 28 73
l23 3 -3 -123 c-3 -116 -4 -123 -24 -126 -16 -2 -29 11 -59 62 -21 36 -49 75
-62 87 l-23 22 0 -86 c0 -86 0 -87 -25 -87 l-25 0 0 125 c0 125 0 125 24 125
15 0 38 -16 63 -43z m344 33 c10 -6 19 -17 19 -26 0 -12 -9 -13 -49 -8 -41 5
-52 3 -70 -15 -28 -28 -36 -65 -21 -102 17 -40 43 -52 96 -44 36 5 44 3 44 -9
0 -22 -32 -36 -85 -36 -38 0 -52 5 -75 28 -53 53 -49 158 7 201 28 23 100 29
134 11z m223 1 c10 -15 -18 -30 -64 -33 -41 -3 -45 -6 -48 -30 -3 -27 -2 -28
42 -28 39 0 46 -3 46 -20 0 -17 -7 -20 -45 -20 -45 0 -45 0 -45 -35 l0 -35 61
0 c52 0 60 -2 57 -17 -3 -15 -16 -18 -86 -21 l-82 -3 0 126 0 125 79 0 c44 0
82 -4 85 -9z m336 -11 c0 -17 -7 -20 -40 -20 l-39 0 -3 -102 c-3 -98 -4 -103
-25 -106 -22 -3 -22 0 -25 100 l-3 103 -30 3 c-34 4 -57 20 -49 33 3 5 52 9
110 9 97 0 104 -1 104 -20z m188 3 c-2 -14 -16 -19 -58 -23 -51 -5 -55 -7 -55
-30 0 -22 5 -26 45 -30 31 -3 45 -10 45 -20 0 -10 -14 -17 -45 -20 -42 -5 -45
-7 -45 -35 0 -29 1 -30 60 -35 44 -4 60 -9 60 -20 0 -20 -154 -28 -166 -8 -10
15 -12 199 -3 222 5 13 22 16 86 16 70 0 79 -2 76 -17z m196 11 c9 -3 16 -14
16 -25 0 -16 -6 -17 -47 -12 -62 7 -88 -18 -88 -84 0 -61 31 -87 92 -78 38 6
43 4 43 -13 0 -24 -18 -32 -76 -32 -81 0 -128 70 -110 166 11 54 48 84 107 84
26 0 54 -3 63 -6z m106 -44 l0 -50 55 0 55 0 0 51 c0 47 2 50 23 47 21 -3 22
-8 25 -98 2 -73 6 -98 19 -107 21 -16 9 -43 -20 -43 -32 0 -45 17 -49 65 l-3
40 -50 0 -50 0 -3 -53 c-3 -48 -5 -53 -25 -50 -21 3 -22 9 -25 103 -3 120 1
145 28 145 17 0 20 -7 20 -50z m671 22 c55 -49 51 -156 -9 -202 -31 -25 -108
-27 -140 -4 -68 48 -68 170 0 218 13 9 43 16 70 16 38 0 54 -6 79 -28z m121
-74 l3 -103 60 -5 c44 -4 60 -9 60 -20 0 -12 -17 -16 -82 -18 l-83 -3 0 119
c0 119 3 132 26 132 10 0 14 -27 16 -102z m327 76 c53 -44 54 -143 1 -196 -24
-23 -37 -28 -80 -28 -43 0 -56 5 -80 28 -53 53 -52 152 1 196 24 20 42 26 79
26 37 0 55 -6 79 -26z m252 16 c10 -6 19 -17 19 -25 0 -10 -12 -12 -52 -8 -74
7 -103 -16 -103 -82 0 -54 28 -85 76 -85 26 0 29 4 29 30 0 25 -4 30 -25 30
-15 0 -25 6 -25 14 0 17 22 26 66 26 l34 0 0 -59 c0 -75 -11 -85 -90 -79 -70
5 -95 24 -110 80 -15 52 -2 107 31 140 23 23 36 28 79 28 28 0 60 -5 71 -10z
m118 -45 c17 -30 36 -55 41 -55 5 0 24 25 41 55 20 37 37 55 50 55 10 0 19 -5
19 -10 0 -15 -28 -67 -61 -117 -20 -29 -29 -54 -29 -82 0 -34 -3 -41 -19 -41
-20 0 -37 32 -26 50 7 11 0 26 -54 120 -36 64 -38 80 -12 80 13 0 30 -18 50
-55z m-3211 -413 c3 -11 0 -12 -17 -3 -22 12 -41 7 -41 -9 0 -5 11 -12 25 -16
13 -3 29 -12 36 -20 25 -30 -33 -58 -71 -34 -8 5 -12 12 -8 15 3 4 15 1 27 -7
15 -9 23 -10 32 -1 14 14 3 33 -20 33 -24 0 -45 26 -37 46 7 19 67 16 74 -4z
m196 2 c34 -34 9 -94 -39 -94 -24 0 -55 33 -55 59 0 42 63 66 94 35z m171 7
c-41 -8 -47 -40 -8 -42 l28 -2 -27 -4 c-19 -3 -28 -10 -28 -23 0 -10 -4 -22
-10 -25 -6 -4 -10 15 -10 49 l0 56 43 -1 c38 -1 39 -2 12 -8z m182 -3 c-9 -8
-18 -32 -20 -58 l-4 -45 -1 48 c-2 39 -6 49 -24 57 -19 7 -15 9 21 9 38 1 42
-1 28 -11z m204 -25 l12 -38 15 35 c10 22 17 29 19 20 5 -22 -25 -92 -37 -85
-4 3 -11 19 -15 35 -9 40 -19 38 -37 -7 l-15 -38 -17 40 c-9 21 -15 46 -13 55
2 9 9 2 19 -20 l15 -35 12 38 c7 20 16 37 21 37 5 0 14 -17 21 -37z m218 -12
c26 -62 26 -71 1 -43 -11 12 -20 30 -20 42 0 11 -4 20 -10 20 -5 0 -10 -8 -10
-18 0 -11 -9 -27 -20 -37 -11 -10 -20 -16 -20 -13 0 15 42 98 49 98 5 0 18
-22 30 -49z m200 35 c9 -10 9 -20 2 -34 -5 -10 -7 -30 -4 -43 l5 -24 -16 23
c-20 26 -53 29 -59 5 -3 -10 -5 6 -6 35 l-1 52 34 0 c18 0 39 -6 45 -14z m161
5 c-44 -8 -47 -34 -5 -40 l30 -4 -30 -6 c-17 -4 -30 -13 -30 -21 0 -8 13 -18
30 -21 29 -6 29 -7 -7 -8 l-38 -1 0 55 0 55 43 -1 42 -2 -35 -6z m318 -36 c27
-57 28 -75 2 -47 -11 12 -20 30 -20 42 0 20 -19 29 -21 10 -3 -22 -5 -26 -22
-50 -9 -13 -17 -19 -17 -12 0 15 42 102 50 102 3 0 16 -20 28 -45z m280 -58
c25 -4 24 -4 -5 -6 l-33 -1 2 58 2 57 3 -52 c4 -47 6 -52 31 -56z m196 63 c21
-52 20 -66 -1 -44 -10 9 -18 22 -18 28 0 14 -20 15 -20 1 0 -14 -35 -62 -35
-48 0 20 39 103 49 103 5 0 16 -18 25 -40z m266 20 c6 -11 16 -20 23 -20 7 0
18 9 25 20 21 34 32 22 30 -32 -1 -36 -2 -43 -5 -20 -5 35 -14 40 -33 17 -12
-14 -15 -14 -31 1 -18 16 -19 16 -19 -14 0 -17 -4 -34 -10 -37 -6 -4 -10 15
-10 49 0 58 11 71 30 36z m235 11 c-17 -3 -30 -13 -30 -21 0 -8 13 -18 30 -21
l30 -7 -33 -1 c-26 -1 -33 -5 -30 -18 2 -10 16 -21 33 -24 29 -6 29 -7 -7 -8
l-38 -1 0 55 0 55 38 -1 c36 -1 36 -2 7 -8z m215 -10 c25 -47 0 -91 -51 -91
-29 0 -29 1 -29 55 l0 55 35 0 c24 0 37 -6 45 -19z m314 3 c38 -37 7 -97 -48
-92 -28 3 -31 6 -34 42 -2 21 -1 44 2 52 7 19 61 18 80 -2z m179 -11 c8 -16
18 -39 22 -53 8 -25 7 -25 -13 -6 -12 10 -21 21 -20 25 3 26 -3 33 -17 21 -8
-7 -12 -16 -9 -21 3 -5 -2 -16 -10 -25 -20 -20 -20 -5 0 46 19 47 29 50 47 13z
m-363 -28 c0 -25 -4 -45 -10 -45 -5 0 -10 20 -10 45 0 25 5 45 10 45 6 0 10
-20 10 -45z"/>
<path d="M3584 2589 c-29 -32 -26 -105 5 -130 43 -35 88 -18 106 39 8 29 -2
78 -22 97 -21 22 -67 18 -89 -6z"/>
<path d="M4034 2589 c-29 -32 -26 -105 5 -130 52 -42 106 -9 106 66 0 51 -26
85 -65 85 -15 0 -35 -9 -46 -21z"/>
<path d="M1452 2178 c-30 -30 2 -93 36 -72 31 20 37 41 18 63 -22 24 -37 26
-54 9z"/>
<path d="M2427 2184 c-17 -17 -5 -34 24 -34 24 0 30 4 27 18 -3 17 -38 29 -51
16z"/>
<path d="M4097 2183 c-4 -3 -7 -24 -7 -45 0 -31 4 -38 19 -38 23 0 51 25 51
45 0 29 -45 56 -63 38z"/>
<path d="M4410 2145 c0 -37 3 -45 18 -45 20 0 52 29 52 48 0 17 -30 42 -51 42
-16 0 -19 -7 -19 -45z"/>
</g>
</svg>
